<svg width="800" height="800" viewBox="0 0 800 800" fill="none" xmlns="http://www.w3.org/2000/svg">
<g clip-path="url(#clip0_109_474)">
<rect width="800" height="800" rx="120" fill="#FAFAFF"/>
<path d="M273.62 117.505V167.418C295.792 131.763 332.242 108 389.294 108C495.485 108 563.613 191.203 563.613 308.47C563.613 425.758 492.303 510.552 386.112 510.552C333.038 510.552 298.953 489.951 276.76 457.435V520.832C276.76 558.853 298.157 584.207 343.339 584.207C386.929 584.207 408.305 567.584 409.875 534.315H553.312C550.172 626.228 483.593 691.216 347.317 691.216C210.224 691.216 131 626.228 131 515.305V117.527L273.62 117.505ZM274.373 308.47C274.373 366.318 299.748 396.425 345.683 396.425C391.66 396.425 416.993 369.501 416.993 311.674C416.993 253.826 391.639 222.127 345.683 222.127C299.748 222.127 274.373 250.643 274.373 308.47Z" fill="#374664"/>
<path d="M669.226 108H582.144L596.489 266.96H655.285L669.226 108Z" fill="#374664"/>
</g>
<defs>
<clipPath id="clip0_109_474">
<rect width="800" height="800" fill="white"/>
</clipPath>
</defs>
</svg>
