<svg width="32" height="32" viewBox="0 0 32 32" fill="none" xmlns="http://www.w3.org/2000/svg">
  <g clip-path="url(#clip0_109_474)">
    <rect width="32" height="32" rx="8" fill="#FAFAFF"/>
    <path d="M10.92 4.56V5.93C11.56 4.04 12.94 3.01 14.65 3.01C17.77 3.01 19.67 5.1 19.67 8.3C19.67 11.51 17.72 13.69 14.55 13.69C12.72 13.69 11.04 12.72 10.42 11.19V14.45C10.42 15.33 11.04 16.18 11.88 16.18C12.83 16.18 13.5 15.51 13.56 14.45H18.29C18.18 16.55 16.96 17.96 14.65 17.96C12.26 17.96 10.23 16.56 10.23 14.41V4.59L10.92 4.56ZM10.98 8.3C10.98 9.14 11.63 9.66 12.32 9.66C13.01 9.66 13.65 9.14 13.65 8.3C13.65 7.47 13.01 6.95 12.32 6.95C11.63 6.95 10.98 7.47 10.98 8.3Z" fill="#374664"/>
    <path d="M20.91 3.01H18.2L18.79 6.69H19.94L20.91 3.01Z" fill="#374664"/>
  </g>
  <defs>
    <clipPath id="clip0_109_474">
      <rect width="32" height="32" fill="white"/>
    </clipPath>
  </defs>
</svg>
