<svg width="75" height="75" viewBox="0 0 75 75" fill="none" xmlns="http://www.w3.org/2000/svg">
<rect x="44.5371" width="41.9904" height="62.9856" rx="20.9952" transform="rotate(45 44.5371 0)" fill="white" fill-opacity="0.2"/>
<g clip-path="url(#clip0_36_546)">
<path d="M44.5458 28.6887H31.8607C31.3175 28.6887 30.8766 29.1296 30.8766 29.6729C30.8766 30.2161 31.3175 30.657 31.8607 30.657H42.1694L28.9778 43.8486C28.5933 44.233 28.5933 44.8563 28.9778 45.2408C29.3623 45.6253 29.9856 45.6253 30.3701 45.2408L43.5616 32.0493V42.3579C43.5616 42.9012 44.0012 43.3421 44.5458 43.3421C45.089 43.3421 45.5299 42.9012 45.5299 42.3579V29.6729C45.5299 29.1296 45.089 28.6887 44.5458 28.6887Z" fill="#FAFAFF"/>
</g>
<defs>
<clipPath id="clip0_36_546">
<rect width="20.9952" height="20.9952" fill="white" transform="translate(26.6123 26.6115)"/>
</clipPath>
</defs>
</svg>
