<svg width="17" height="16" viewBox="0 0 17 16" fill="none" xmlns="http://www.w3.org/2000/svg">
  <path
    d="M6.07153 5.17133V4.5C6.07153 3.96957 6.28225 3.46086 6.65732 3.08579C7.03239 2.71071 7.5411 2.5 8.07153 2.5H12.4049C12.9353 2.5 13.444 2.71071 13.8191 3.08579C14.1942 3.46086 14.4049 3.96957 14.4049 4.5V8.83333C14.4049 9.36377 14.1942 9.87248 13.8191 10.2475C13.444 10.6226 12.9353 10.8333 12.4049 10.8333H11.7435"
    stroke="#666666" stroke-linecap="round" stroke-linejoin="round" />
  <path
    d="M3.40479 7.16669C3.40479 6.63625 3.6155 6.12755 3.99057 5.75247C4.36564 5.3774 4.87435 5.16669 5.40479 5.16669H9.73812C10.2686 5.16669 10.7773 5.3774 11.1523 5.75247C11.5274 6.12755 11.7381 6.63625 11.7381 7.16669V11.5C11.7381 12.0305 11.5274 12.5392 11.1523 12.9142C10.7773 13.2893 10.2686 13.5 9.73812 13.5H5.40479C4.87435 13.5 4.36564 13.2893 3.99057 12.9142C3.6155 12.5392 3.40479 12.0305 3.40479 11.5V7.16669Z"
    stroke="#666666" stroke-linecap="round" stroke-linejoin="round" />
</svg>