<svg width="60" height="60" viewBox="0 0 60 60" fill="none" xmlns="http://www.w3.org/2000/svg">
<rect width="60" height="60" rx="30" fill="#FAFAFF"/>
<path d="M41.504 29.2801L32.225 20.0011C31.8276 19.6038 31.1826 19.6038 30.7852 20.0011C30.3878 20.3985 30.3878 21.0435 30.7852 21.4409L38.3259 28.9816L19.0269 28.9816C18.4645 28.9816 18.0085 29.4375 18.0085 30C18.0085 30.5625 18.4645 31.0184 19.0269 31.0184L38.3259 31.0184L30.7852 38.5591C30.3878 38.9565 30.3869 39.6005 30.7852 39.9989C31.1826 40.3963 31.8276 40.3963 32.225 39.9989L41.504 30.7199C41.9014 30.3225 41.9014 29.6775 41.504 29.2801Z" fill="#374664"/>
</svg>
