<svg width="53" height="32" viewBox="0 0 53 32" fill="none" xmlns="http://www.w3.org/2000/svg">
  <path
    d="M37.2942 0.88855H40.392L39.8961 6.54325H37.8045L37.2942 0.88855ZM5.9688 7.10125V9.19015C6.8967 7.69795 8.4222 6.70345 10.8099 6.70345C15.2541 6.70345 18.1053 10.1855 18.1053 15.0932C18.1053 20.0019 15.1209 23.5505 10.6767 23.5505C8.4555 23.5505 7.029 22.6883 6.1002 21.3275V23.9807C6.1002 25.572 6.9957 26.633 8.8866 26.633C10.7109 26.633 11.6055 25.9373 11.6712 24.545H17.6742C17.5428 28.3916 14.7564 31.1115 9.0531 31.1115C3.3156 31.1115 0 28.3916 0 23.7494V7.10215L5.9688 7.10125ZM6.0003 15.0932C6.0003 17.5142 7.0623 18.7742 8.9847 18.7742C10.9089 18.7742 11.9691 17.6474 11.9691 15.2273C11.9691 12.8063 10.908 11.4797 8.9847 11.4797C7.0623 11.4797 6.0003 12.6731 6.0003 15.0932Z"
    fill="#1E1E1E" />
  <path
    d="M35.5555 0.88855V24.5001H29.62V22.4436C28.5922 23.9367 27.0334 24.8988 24.7456 24.8988C20.1349 24.8988 17.4502 21.3492 17.4502 15.9447C17.4502 10.5384 20.1349 6.99055 24.7456 6.99055C26.9002 6.99055 28.4257 7.85275 29.4544 9.21265V0.88855H35.5555ZM29.5534 15.9447C29.5534 13.026 28.4923 11.765 26.569 11.765C24.6448 11.765 23.5846 13.1582 23.5846 16.0761C23.5846 18.9948 24.6457 20.1216 26.569 20.1216C28.4923 20.1225 29.5534 18.8616 29.5534 15.9447Z"
    fill="#1E1E1E" />
  <path
    d="M46.7687 24.5C46.5689 24.0689 46.3709 23.4056 46.3367 22.7423C45.2765 24.068 43.4522 24.8978 40.8998 24.8978C37.3511 24.8978 34.5989 23.0402 34.5989 19.5581C34.5989 16.5071 36.4223 14.6495 41.4299 14.2193L44.183 13.9871C45.5753 13.8548 46.2386 13.4894 46.2386 12.5615C46.2386 11.7983 45.8408 11.2016 44.0831 11.2016C42.3929 11.2016 41.6954 11.5661 41.5289 13.025H35.4935C35.7923 9.04522 38.4122 6.98962 44.1488 6.98962C49.7207 6.98962 52.2083 8.97952 52.2083 12.3617V21.4148C52.2083 22.7414 52.4405 23.8682 52.9049 24.4982H46.7687V24.5ZM46.2377 17.768C46.2377 17.3999 45.8759 17.1425 45.5276 17.2631C45.3017 17.3414 45.0335 17.3945 44.7122 17.4368L42.7556 17.6366C41.4623 17.768 40.7999 18.299 40.7999 19.3268C40.7999 20.3546 41.6288 20.9846 42.9878 20.9846C44.7788 20.9846 46.2377 20.189 46.2377 17.768Z"
    fill="#1E1E1E" />
</svg>